<?xml version="1.0" standalone="no"?>
<!DOCTYPE svg PUBLIC "-//W3C//DTD SVG 20010904//EN"
 "http://www.w3.org/TR/2001/REC-SVG-20010904/DTD/svg10.dtd">
<svg version="1.0" xmlns="http://www.w3.org/2000/svg"
 width="980.000000pt" height="980.000000pt" viewBox="0 0 980.000000 980.000000"
 preserveAspectRatio="xMidYMid meet">

<g transform="translate(0.000000,980.000000) scale(0.100000,-0.100000)"
fill="#000000" stroke="none">
<path d="M0 4900 l0 -4900 4900 0 4900 0 0 4900 0 4900 -4900 0 -4900 0 0
-4900z m4980 331 c0 -894 -3 -1131 -12 -1135 -32 -15 112 8 183 29 44 13 90
21 102 19 18 -4 19 -3 4 4 -15 6 -8 12 37 31 31 12 83 41 117 62 34 22 64 37
68 34 3 -4 -3 -13 -13 -21 -21 -15 -10 -19 13 -5 8 5 11 16 8 24 -4 10 14 32
52 65 32 28 82 81 112 117 30 37 55 61 58 54 2 -7 -1 -15 -7 -17 -7 -2 -12 -8
-12 -14 0 -6 7 -5 16 3 9 7 14 22 11 36 -2 12 -1 20 3 18 4 -3 14 3 21 12 12
14 12 16 -2 11 -12 -5 -9 8 13 48 16 30 33 54 36 54 4 0 13 22 19 50 7 27 18
64 26 82 22 51 37 123 37 176 0 26 4 62 10 81 5 19 6 39 2 45 -4 6 -7 31 -8
56 0 25 -9 79 -19 120 -10 41 -18 88 -18 103 0 16 -3 24 -6 19 -3 -5 -16 12
-28 39 -12 27 -18 47 -12 44 5 -4 9 1 9 9 0 9 -4 15 -9 14 -15 -5 -114 155
-116 186 -2 31 -18 45 -30 27 -3 -6 -2 -11 3 -11 6 0 13 -8 16 -17 3 -10 -6
-4 -20 12 -62 70 -134 145 -134 140 0 -4 -5 -3 -10 0 -8 5 -7 12 2 23 12 15
11 16 -4 4 -15 -12 -21 -11 -42 6 -14 11 -22 23 -18 27 4 5 1 5 -5 1 -7 -4
-30 5 -50 19 -21 14 -43 25 -50 25 -10 0 -13 39 -13 170 0 94 2 170 4 170 16
0 65 -24 61 -30 -3 -4 5 -6 17 -2 16 4 19 2 13 -8 -5 -9 -4 -11 3 -6 20 12 34
-4 20 -22 -10 -14 -10 -15 2 -4 15 13 34 17 27 5 -3 -5 5 -9 17 -9 39 -3 221
-127 211 -145 -4 -5 0 -6 7 -4 28 11 269 -250 253 -275 -4 -6 -1 -9 5 -8 28 7
130 -197 179 -356 105 -339 39 -747 -168 -1051 -30 -44 -61 -86 -68 -93 -7 -8
-25 -29 -39 -48 -15 -18 -31 -31 -37 -27 -5 3 -7 2 -4 -4 3 -5 -12 -27 -33
-48 -22 -22 -40 -36 -40 -31 0 4 -12 -6 -26 -23 -14 -17 -32 -31 -40 -31 -8 0
-17 -7 -21 -16 -3 -8 -12 -13 -19 -10 -7 3 -23 -4 -36 -15 l-23 -20 28 17 c15
9 27 14 27 11 0 -10 -101 -67 -110 -62 -5 3 -12 0 -16 -6 -5 -8 -3 -9 6 -4 8
5 11 4 7 -2 -8 -12 -204 -100 -239 -107 -13 -3 -43 -11 -68 -19 -25 -8 -89
-22 -142 -32 l-98 -17 0 -38 c0 -60 -28 -205 -54 -280 -31 -88 -100 -216 -116
-212 -6 1 -9 -2 -5 -8 17 -28 -217 -262 -245 -245 -6 4 -9 1 -8 -5 4 -16 -119
-83 -138 -76 -7 3 -13 1 -11 -5 5 -22 -174 -73 -259 -74 -34 0 -60 -4 -57 -8
3 -5 -17 -7 -44 -5 l-48 3 -3 151 -3 151 78 6 c92 6 195 37 264 78 28 16 54
27 59 24 5 -3 12 0 16 6 5 8 3 9 -6 4 -9 -6 -11 -4 -6 4 5 7 15 10 24 6 9 -3
13 -3 9 1 -10 10 54 75 66 67 6 -3 7 -1 3 5 -3 6 -2 13 4 17 19 12 85 119 114
185 16 36 35 78 44 94 8 16 10 26 5 23 -12 -8 -5 93 8 109 5 6 6 14 2 17 -3 4
-152 7 -330 7 l-323 0 0 908 c0 499 3 937 7 975 l6 67 153 0 154 0 0 -826 0
-825 170 3 c94 2 170 0 170 -4 0 -5 -9 -8 -20 -8 -17 0 -18 -2 -8 -13 10 -11
15 -12 25 -1 17 16 17 44 1 44 -9 0 -8 4 2 10 10 6 11 10 3 10 -10 0 -13 204
-15 968 l-3 967 -337 3 -338 2 0 150 0 150 495 0 495 0 0 -1129z"/>
<path d="M5357 6226 c-4 -10 -1 -13 8 -9 8 3 12 9 9 14 -7 12 -11 11 -17 -5z"/>
<path d="M4965 5195 c0 -566 1 -797 2 -512 2 285 2 749 0 1030 -1 282 -2 49
-2 -518z"/>
<path d="M5522 6144 c2 -19 5 -20 25 -11 12 5 20 14 16 20 -3 5 -9 3 -14 -4
-8 -12 -11 -11 -19 1 -7 12 -9 11 -8 -6z"/>
<path d="M5333 6080 c0 -25 2 -35 4 -22 2 12 2 32 0 45 -2 12 -4 2 -4 -23z"/>
<path d="M5605 6109 c-4 -6 -5 -12 -2 -15 2 -3 7 2 10 11 7 17 1 20 -8 4z"/>
<path d="M5616 6079 c-18 -18 -15 -39 7 -39 7 0 6 4 -3 10 -16 10 -15 12 14
27 10 6 15 13 10 15 -5 3 -17 -3 -28 -13z"/>
<path d="M4043 6083 c20 -2 54 -2 75 0 20 2 3 4 -38 4 -41 0 -58 -2 -37 -4z"/>
<path d="M4205 6083 c111 -6 463 -8 447 -1 -9 4 -125 6 -257 5 -132 0 -217 -2
-190 -4z"/>
<path d="M4690 6070 c-13 -9 -13 -11 0 -20 8 -5 20 -10 25 -10 6 0 3 5 -5 10
-13 9 -13 11 0 20 8 5 11 10 5 10 -5 0 -17 -5 -25 -10z"/>
<path d="M5665 6070 c3 -5 8 -10 11 -10 2 0 4 5 4 10 0 6 -5 10 -11 10 -5 0
-7 -4 -4 -10z"/>
<path d="M5655 6048 c28 -16 36 -30 28 -53 -5 -18 -4 -18 11 -6 13 11 14 17 4
30 -18 23 -40 41 -52 41 -6 0 -2 -6 9 -12z"/>
<path d="M5749 5997 c14 -15 19 -27 12 -27 -7 0 -9 -5 -5 -12 6 -9 9 -9 12 0
6 19 22 14 22 -7 0 -18 19 -32 43 -30 7 0 2 4 -10 9 -13 5 -23 15 -23 23 0 14
-32 47 -60 62 -8 5 -4 -4 9 -18z"/>
<path d="M5720 5980 c0 -5 5 -10 11 -10 5 0 7 5 4 10 -3 6 -8 10 -11 10 -2 0
-4 -4 -4 -10z"/>
<path d="M5344 5953 c4 -4 16 -8 28 -10 28 -4 18 6 -12 12 -12 2 -20 1 -16 -2z"/>
<path d="M5404 5918 c10 -6 22 -6 26 -2 5 5 -3 10 -18 11 -22 1 -24 0 -8 -9z"/>
<path d="M5780 5905 c13 -16 55 -20 64 -6 3 4 -5 6 -18 4 -13 -3 -27 0 -30 6
-4 6 -12 11 -18 11 -7 0 -6 -6 2 -15z"/>
<path d="M5851 5824 c0 -11 3 -14 6 -6 3 7 2 16 -1 19 -3 4 -6 -2 -5 -13z"/>
<path d="M5922 5810 c7 -10 14 -18 15 -16 6 6 -9 36 -18 36 -5 0 -4 -9 3 -20z"/>
<path d="M5644 5775 c8 -8 18 -15 22 -15 3 0 1 7 -6 15 -7 8 -17 15 -22 15 -5
0 -3 -7 6 -15z"/>
<path d="M5923 5754 c-3 -8 -2 -19 3 -24 5 -5 9 1 9 16 0 28 -3 30 -12 8z"/>
<path d="M5626 5746 c21 -15 30 -14 19 3 -3 6 -14 11 -23 11 -13 0 -13 -2 4
-14z"/>
<path d="M5952 5751 c-11 -6 -10 -10 0 -19 11 -8 14 -7 14 9 0 10 0 19 -1 19
0 0 -6 -4 -13 -9z"/>
<path d="M4055 4795 c0 -511 1 -719 2 -462 2 258 2 676 0 930 -1 254 -2 44 -2
-468z"/>
<path d="M6020 5640 c0 -5 5 -10 11 -10 5 0 7 5 4 10 -3 6 -8 10 -11 10 -2 0
-4 -4 -4 -10z"/>
<path d="M5706 5627 c3 -9 10 -17 14 -17 5 0 12 -9 15 -20 6 -20 25 -19 25 1
0 6 -4 7 -10 4 -13 -8 -13 1 -1 24 7 13 6 18 -4 18 -8 0 -11 -7 -7 -16 4 -12
0 -12 -17 3 -18 17 -21 17 -15 3z"/>
<path d="M6046 5584 c-4 -9 -4 -19 -1 -22 3 -3 5 0 5 8 0 10 4 10 18 -1 16
-13 16 -13 2 6 -8 11 -15 21 -16 23 -1 2 -4 -5 -8 -14z"/>
<path d="M4075 4760 c0 -443 1 -624 2 -403 2 222 2 584 0 805 -1 222 -2 41 -2
-402z"/>
<path d="M6086 5520 c3 -14 11 -32 16 -40 6 -10 7 -7 2 10 -3 14 -11 32 -16
40 -6 10 -7 7 -2 -10z"/>
<path d="M5810 5491 c0 -5 5 -13 10 -16 6 -3 10 -2 10 4 0 5 -4 13 -10 16 -5
3 -10 2 -10 -4z"/>
<path d="M5805 5450 c3 -5 8 -10 11 -10 2 0 4 5 4 10 0 6 -5 10 -11 10 -5 0
-7 -4 -4 -10z"/>
<path d="M6105 5440 c-4 -12 -5 -24 -2 -27 3 -2 8 5 12 17 4 12 5 24 2 27 -3
2 -8 -5 -12 -17z"/>
<path d="M6121 5404 c0 -11 3 -14 6 -6 3 7 2 16 -1 19 -3 4 -6 -2 -5 -13z"/>
<path d="M6082 5390 c0 -14 2 -19 5 -12 2 6 2 18 0 25 -3 6 -5 1 -5 -13z"/>
<path d="M6102 5375 c0 -16 2 -22 5 -12 2 9 2 23 0 30 -3 6 -5 -1 -5 -18z"/>
<path d="M6130 5355 c0 -5 5 -17 10 -25 5 -8 10 -10 10 -5 0 6 -5 17 -10 25
-5 8 -10 11 -10 5z"/>
<path d="M5892 5215 c0 -16 2 -22 5 -12 2 9 2 23 0 30 -3 6 -5 -1 -5 -18z"/>
<path d="M5900 4874 c0 -16 5 -36 10 -44 6 -10 7 -2 3 25 -7 49 -13 58 -13 19z"/>
<path d="M5872 4865 c0 -16 2 -22 5 -12 2 9 2 23 0 30 -3 6 -5 -1 -5 -18z"/>
<path d="M6111 4824 c0 -11 3 -14 6 -6 3 7 2 16 -1 19 -3 4 -6 -2 -5 -13z"/>
<path d="M6137 4823 c-4 -3 -7 -11 -7 -17 0 -6 5 -5 12 2 6 6 9 14 7 17 -3 3
-9 2 -12 -2z"/>
<path d="M6084 4653 c0 -29 4 -46 9 -38 4 7 3 31 -2 52 -9 38 -9 38 -7 -14z"/>
<path d="M6106 4685 c-9 -26 -7 -32 5 -12 6 10 9 21 6 23 -2 3 -7 -2 -11 -11z"/>
<path d="M5776 4624 c-3 -9 -4 -19 -1 -22 3 -3 5 1 5 9 0 11 2 11 10 -1 5 -8
10 -10 10 -5 0 6 -4 16 -9 23 -6 11 -10 10 -15 -4z"/>
<path d="M6041 4534 c0 -11 3 -14 6 -6 3 7 2 16 -1 19 -3 4 -6 -2 -5 -13z"/>
<path d="M5743 4523 c-3 -10 -8 -21 -9 -24 -2 -4 2 -12 9 -18 11 -8 13 -3 13
24 -1 39 -4 43 -13 18z"/>
<path d="M6012 4520 c0 -14 2 -19 5 -12 2 6 2 18 0 25 -3 6 -5 1 -5 -13z"/>
<path d="M5720 4461 c0 -5 7 -12 16 -15 14 -5 15 -4 4 9 -14 17 -20 19 -20 6z"/>
<path d="M5947 4423 c3 -7 6 -13 8 -13 1 0 7 6 13 13 8 10 6 13 -7 13 -11 0
-17 -6 -14 -13z"/>
<path d="M5970 4400 c-13 -18 -14 -18 -26 -2 -8 9 -14 12 -14 7 0 -6 5 -16 11
-22 6 -6 8 -17 3 -24 -5 -9 -9 -8 -15 7 -5 14 -7 11 -6 -13 2 -30 3 -31 20
-13 9 11 17 22 17 26 0 4 7 16 17 26 9 10 14 20 12 23 -3 2 -11 -4 -19 -15z"/>
<path d="M5603 4380 c-23 -21 -28 -30 -17 -34 8 -3 13 0 11 7 -1 7 6 11 15 11
10 -1 14 4 11 12 -3 8 0 14 6 14 6 0 11 -5 11 -12 0 -6 3 -9 6 -5 3 3 2 12 -3
20 -7 13 -13 11 -40 -13z"/>
<path d="M5666 4373 c-6 -14 -5 -15 5 -6 7 7 10 15 7 18 -3 3 -9 -2 -12 -12z"/>
<path d="M5530 4315 c-19 -14 -30 -25 -24 -25 10 0 73 49 63 50 -3 0 -20 -11
-39 -25z"/>
<path d="M5856 4251 c-23 -43 -20 -52 5 -12 11 18 18 35 15 38 -2 3 -12 -9
-20 -26z"/>
<path d="M5396 4215 c-11 -8 -16 -15 -10 -15 5 0 18 7 28 15 11 8 16 15 10 15
-5 0 -18 -7 -28 -15z"/>
<path d="M5436 4212 c-5 -9 41 -8 51 1 3 4 -5 7 -20 7 -14 0 -28 -4 -31 -8z"/>
<path d="M5773 4193 c-15 -5 -17 -29 -4 -37 4 -3 17 4 27 17 l19 22 -22 -19
c-24 -20 -32 -9 -11 12 13 13 11 14 -9 5z"/>
<path d="M5310 4170 c-19 -11 -30 -19 -25 -19 6 0 26 8 45 19 19 11 31 19 25
19 -5 0 -26 -8 -45 -19z"/>
<path d="M5323 4150 c-34 -14 -28 -21 7 -9 17 6 30 13 30 15 0 6 -12 4 -37 -6z"/>
<path d="M5345 4130 c-3 -5 -1 -10 4 -10 6 0 11 5 11 10 0 6 -2 10 -4 10 -3 0
-8 -4 -11 -10z"/>
<path d="M5691 4103 c8 -9 8 -13 0 -13 -6 0 -11 -6 -11 -12 1 -7 9 -3 19 9 10
12 21 20 25 18 3 -3 4 -2 1 2 -3 4 -14 7 -25 8 -15 1 -17 -1 -9 -12z"/>
<path d="M5090 4090 c-23 -7 -23 -8 -3 -9 12 -1 25 4 28 9 3 6 5 10 3 9 -2 -1
-14 -5 -28 -9z"/>
<path d="M4965 4070 c-3 -5 1 -10 10 -10 9 0 13 5 10 10 -3 6 -8 10 -10 10 -2
0 -7 -4 -10 -10z"/>
<path d="M5034 4071 c4 -5 1 -11 -6 -13 -7 -3 -5 -7 6 -11 11 -4 15 -3 10 4
-4 8 3 9 22 5 16 -3 36 -1 44 4 11 8 9 9 -11 4 -15 -3 -30 -1 -33 5 -4 6 -14
11 -22 11 -8 0 -13 -4 -10 -9z"/>
<path d="M4328 4053 c6 -2 18 -2 25 0 6 3 1 5 -13 5 -14 0 -19 -2 -12 -5z"/>
<path d="M4700 4049 c0 -5 5 -7 10 -4 6 3 10 8 10 11 0 2 -4 4 -10 4 -5 0 -10
-5 -10 -11z"/>
<path d="M5365 3950 c-3 -6 1 -7 9 -4 18 7 21 14 7 14 -6 0 -13 -4 -16 -10z"/>
<path d="M5398 3943 c-21 -9 -38 -19 -38 -24 0 -4 12 -1 28 7 15 7 34 14 42
13 8 0 -5 -11 -30 -24 -54 -29 -46 -33 10 -5 27 14 38 25 34 35 -4 8 -7 15 -8
14 0 -1 -18 -8 -38 -16z"/>
<path d="M5470 3956 c0 -2 7 -7 16 -10 8 -3 12 -2 9 4 -6 10 -25 14 -25 6z"/>
<path d="M5259 3867 c5 -5 19 -7 32 -5 20 3 19 5 -9 9 -20 3 -29 2 -23 -4z"/>
<path d="M5218 3853 c7 -3 16 -2 19 1 4 3 -2 6 -13 5 -11 0 -14 -3 -6 -6z"/>
<path d="M4051 3823 c-1 -25 3 -33 17 -33 11 0 13 3 6 8 -7 4 -14 18 -17 32
-4 21 -4 20 -6 -7z"/>
<path d="M5141 3831 c-10 -6 1 -8 30 -4 24 3 46 7 48 9 10 9 -65 3 -78 -5z"/>
<path d="M4670 3670 c0 -5 5 -10 10 -10 6 0 10 5 10 10 0 6 -4 10 -10 10 -5 0
-10 -4 -10 -10z"/>
<path d="M4695 3600 c3 -5 8 -10 11 -10 2 0 4 5 4 10 0 6 -5 10 -11 10 -5 0
-7 -4 -4 -10z"/>
<path d="M4650 3589 c0 -5 5 -7 10 -4 6 3 10 8 10 11 0 2 -4 4 -10 4 -5 0 -10
-5 -10 -11z"/>
<path d="M4620 3521 c-6 -12 -7 -21 -1 -21 10 0 24 30 17 37 -2 3 -9 -5 -16
-16z"/>
<path d="M4616 3455 c-3 -9 -10 -14 -15 -10 -11 6 -44 -36 -35 -44 3 -3 10 2
15 11 5 10 16 15 23 12 8 -3 16 4 19 17 7 27 2 37 -7 14z"/>
<path d="M4891 3454 c0 -11 3 -14 6 -6 3 7 2 16 -1 19 -3 4 -6 -2 -5 -13z"/>
<path d="M4881 3414 c0 -11 3 -14 6 -6 3 7 2 16 -1 19 -3 4 -6 -2 -5 -13z"/>
<path d="M4840 3389 c0 -5 5 -7 10 -4 6 3 10 8 10 11 0 2 -4 4 -10 4 -5 0 -10
-5 -10 -11z"/>
<path d="M4811 3374 c0 -11 3 -14 6 -6 3 7 2 16 -1 19 -3 4 -6 -2 -5 -13z"/>
<path d="M4545 3370 c3 -5 8 -10 11 -10 2 0 4 5 4 10 0 6 -5 10 -11 10 -5 0
-7 -4 -4 -10z"/>
<path d="M4845 3360 c-3 -5 -1 -10 4 -10 6 0 11 5 11 10 0 6 -2 10 -4 10 -3 0
-8 -4 -11 -10z"/>
<path d="M4540 3342 c6 -13 14 -21 18 -18 3 4 -2 14 -12 24 -18 16 -18 16 -6
-6z"/>
<path d="M4830 3319 c0 -5 5 -7 10 -4 6 3 10 8 10 11 0 2 -4 4 -10 4 -5 0 -10
-5 -10 -11z"/>
<path d="M4815 3290 c3 -5 8 -10 11 -10 2 0 4 5 4 10 0 6 -5 10 -11 10 -5 0
-7 -4 -4 -10z"/>
<path d="M4740 3222 c0 -5 7 -13 16 -16 10 -4 14 -1 12 6 -5 15 -28 23 -28 10z"/>
<path d="M4355 3200 c3 -5 11 -10 16 -10 6 0 7 5 4 10 -3 6 -11 10 -16 10 -6
0 -7 -4 -4 -10z"/>
<path d="M4730 3191 c0 -5 5 -13 10 -16 6 -3 10 -2 10 4 0 5 -4 13 -10 16 -5
3 -10 2 -10 -4z"/>
<path d="M4340 3175 c14 -8 30 -14 35 -14 6 0 -1 6 -15 14 -14 8 -29 14 -35
14 -5 0 1 -6 15 -14z"/>
<path d="M4717 3153 c-4 -3 -7 -11 -7 -17 0 -6 5 -5 12 2 6 6 9 14 7 17 -3 3
-9 2 -12 -2z"/>
<path d="M4138 3123 c7 -3 16 -2 19 1 4 3 -2 6 -13 5 -11 0 -14 -3 -6 -6z"/>
<path d="M4645 3119 c-11 -16 -1 -19 13 -3 7 8 8 14 3 14 -5 0 -13 -5 -16 -11z"/>
<path d="M4038 3113 c7 -3 16 -2 19 1 4 3 -2 6 -13 5 -11 0 -14 -3 -6 -6z"/>
<path d="M4643 3078 c-23 -23 -46 -39 -50 -34 -4 4 -1 11 7 16 9 6 10 10 3 10
-13 0 -43 -27 -43 -40 0 -5 4 -12 10 -15 6 -4 7 1 3 11 -5 13 -2 15 13 11 20
-6 39 7 83 56 38 42 21 32 -26 -15z"/>
<path d="M4123 3103 c15 -2 39 -2 55 0 15 2 2 4 -28 4 -30 0 -43 -2 -27 -4z"/>
<path d="M4445 2990 c-3 -5 1 -10 10 -10 9 0 13 5 10 10 -3 6 -8 10 -10 10 -2
0 -7 -4 -10 -10z"/>
<path d="M4510 2996 c0 -2 7 -7 16 -10 8 -3 12 -2 9 4 -6 10 -25 14 -25 6z"/>
<path d="M4494 2964 c-18 -14 -18 -15 4 -4 12 6 22 13 22 15 0 8 -5 6 -26 -11z"/>
<path d="M4437 2953 c-4 -3 -7 -11 -7 -17 0 -6 5 -5 12 2 6 6 9 14 7 17 -3 3
-9 2 -12 -2z"/>
<path d="M4280 2910 c0 -5 5 -10 10 -10 6 0 10 5 10 10 0 6 -4 10 -10 10 -5 0
-10 -4 -10 -10z"/>
<path d="M4338 2913 c7 -3 16 -2 19 1 4 3 -2 6 -13 5 -11 0 -14 -3 -6 -6z"/>
<path d="M4285 2885 c-22 -8 -31 -14 -20 -14 11 0 34 6 50 14 38 17 22 17 -30
0z"/>
</g>
</svg>
